<?xml version="1.0" encoding="UTF-8" standalone="no"?>
<!DOCTYPE svg PUBLIC "-//W3C//DTD SVG 1.1//EN" "http://www.w3.org/Graphics/SVG/1.1/DTD/svg11.dtd">
<svg width="100%" height="100%" viewBox="0 0 192 192" version="1.1" xmlns="http://www.w3.org/2000/svg" xmlns:xlink="http://www.w3.org/1999/xlink" xml:space="preserve" xmlns:serif="http://www.serif.com/" style="fill-rule:evenodd;clip-rule:evenodd;stroke-linejoin:round;stroke-miterlimit:2;">
    <g transform="matrix(1.62443,0,0,1.15152,-55.4628,-14.5455)">
        <path d="M77.851,178.5C77.851,178.5 65.062,178.5 53.418,178.5C48.469,178.5 43.723,175.727 40.224,170.79C36.724,165.854 34.759,159.159 34.759,152.178L34.759,39.822C34.759,32.841 36.724,26.146 40.224,21.21C43.723,16.273 48.469,13.5 53.418,13.5C65.062,13.5 77.851,13.5 77.851,13.5L77.851,178.5Z" style="fill:rgb(13,202,242);"/>
    </g>
    <g transform="matrix(1.54616,0,0,1.15152,-47.4824,-14.5455)">
        <path d="M82.451,13.5L134.638,13.5C145.465,13.5 154.241,25.285 154.241,39.822L154.241,152.178C154.241,166.715 145.465,178.5 134.638,178.5L82.451,178.5L82.451,13.5Z" style="fill:rgb(242,94,13);"/>
    </g>
    <g transform="matrix(1.5,0,0,1.5,-40.5,-12)">
        <circle cx="51" cy="32" r="16" style="fill:white;"/>
    </g>
    <g transform="matrix(1.36667,0,0,1.37121,-32.2667,-19.5379)">
        <rect x="88" y="23" width="60" height="8" style="fill:white;"/>
    </g>
    <g transform="matrix(0.716667,0,0,1.37121,24.9333,31.4621)">
        <rect x="88" y="23" width="60" height="8" style="fill:white;"/>
    </g>
    <g transform="matrix(0.882828,0,0,1.37121,10.3111,83.4621)">
        <rect x="88" y="23" width="60" height="8" style="fill:white;"/>
    </g>
    <g transform="matrix(0.45,0,0,1.37121,48.4,6.46212)">
        <rect x="88" y="23" width="60" height="8" style="fill:white;"/>
    </g>
    <g transform="matrix(0.45,0,0,1.37121,48.4,57.4621)">
        <rect x="88" y="23" width="60" height="8" style="fill:white;"/>
    </g>
    <g transform="matrix(0.45,0,0,1.37121,48.4,110.462)">
        <rect x="88" y="23" width="60" height="8" style="fill:white;"/>
    </g>
    <g transform="matrix(0.45,0,0,1.37121,84.4,6.46212)">
        <rect x="88" y="23" width="60" height="8" style="fill:white;"/>
    </g>
    <g transform="matrix(0.45,0,0,1.37121,84.4,57.4621)">
        <rect x="88" y="23" width="60" height="8" style="fill:white;"/>
    </g>
    <g transform="matrix(0.383838,0,0,1.37121,124.222,57.4621)">
        <rect x="88" y="23" width="60" height="8" style="fill:white;"/>
    </g>
    <g transform="matrix(0.45,0,0,1.37121,84.4,110.462)">
        <rect x="88" y="23" width="60" height="8" style="fill:white;"/>
    </g>
    <g transform="matrix(0.716667,0,0,1.37121,24.9333,135.462)">
        <rect x="88" y="23" width="60" height="8" style="fill:white;"/>
    </g>
</svg>
